<svg width="22" height="22" viewBox="0 0 22 22" fill="none" xmlns="http://www.w3.org/2000/svg">
<path d="M20.9633 17.33C20.9633 17.69 20.8831 18.06 20.7125 18.42C20.542 18.78 20.3213 19.12 20.0303 19.44C19.5387 19.98 18.997 20.37 18.385 20.62C17.7831 20.87 17.131 21 16.4287 21C15.4054 21 14.3119 20.76 13.1582 20.27C12.0044 19.78 10.8507 19.12 9.70703 18.29C8.55331 17.45 7.45978 16.52 6.41641 15.49C5.38308 14.45 4.45007 13.36 3.61738 12.22C2.79473 11.08 2.13259 9.94 1.65104 8.81C1.16949 7.67 0.928711 6.58 0.928711 5.54C0.928711 4.86 1.0491 4.21 1.28988 3.61C1.53065 3 1.91188 2.44 2.4436 1.94C3.08567 1.31 3.78793 1 4.53033 1C4.81124 1 5.09214 1.06 5.34295 1.18C5.60379 1.3 5.83454 1.48 6.01512 1.74L8.34263 5.01C8.52321 5.26 8.65363 5.49 8.74392 5.71C8.83421 5.92 8.88438 6.13 8.88438 6.32C8.88438 6.56 8.81415 6.8 8.6737 7.03C8.54327 7.26 8.35266 7.5 8.11188 7.74L7.34942 8.53C7.23907 8.64 7.18891 8.77 7.18891 8.93C7.18891 9.01 7.19894 9.08 7.219 9.16C7.2491 9.24 7.2792 9.3 7.29926 9.36C7.47984 9.69 7.79085 10.12 8.23227 10.64C8.68373 11.16 9.16528 11.69 9.68696 12.22C10.2287 12.75 10.7504 13.24 11.2821 13.69C11.8038 14.13 12.2352 14.43 12.5763 14.61C12.6264 14.63 12.6866 14.66 12.7569 14.69C12.8371 14.72 12.9174 14.73 13.0077 14.73C13.1782 14.73 13.3086 14.67 13.419 14.56L14.1815 13.81C14.4323 13.56 14.673 13.37 14.9038 13.25C15.1345 13.11 15.3653 13.04 15.6161 13.04C15.8067 13.04 16.0074 13.08 16.2281 13.17C16.4488 13.26 16.6795 13.39 16.9303 13.56L20.251 15.91C20.5119 16.09 20.6925 16.3 20.8028 16.55C20.9031 16.8 20.9633 17.05 20.9633 17.33Z" stroke="black" stroke-opacity="0.88" stroke-width="1.5" stroke-miterlimit="10"/>
<path d="M14.4727 5H19.4888" stroke="black" stroke-opacity="0.88" stroke-width="1.5" stroke-linecap="round" stroke-linejoin="round"/>
</svg>
