<svg width="22" height="22" viewBox="0 0 22 22" fill="none" xmlns="http://www.w3.org/2000/svg">
<path d="M20.899 17.33C20.899 17.69 20.8192 18.06 20.6498 18.42C20.4803 18.78 20.261 19.12 19.9719 19.44C19.4835 19.98 18.9453 20.37 18.3372 20.62C17.7391 20.87 17.0912 21 16.3935 21C15.3768 21 14.2903 20.76 13.144 20.27C11.9977 19.78 10.8514 19.12 9.71503 18.29C8.56873 17.45 7.48223 16.52 6.44558 15.49C5.41889 14.45 4.49188 13.36 3.66455 12.22C2.84718 11.08 2.18931 9.94 1.71085 8.81C1.23239 7.67 0.993164 6.58 0.993164 5.54C0.993164 4.86 1.11278 4.21 1.35201 3.61C1.59123 3 1.97001 2.44 2.49831 1.94C3.13625 1.31 3.834 1 4.57162 1C4.85072 1 5.12982 1.06 5.37902 1.18C5.63818 1.3 5.86744 1.48 6.04686 1.74L8.3594 5.01C8.53882 5.26 8.6684 5.49 8.75812 5.71C8.84783 5.92 8.89767 6.13 8.89767 6.32C8.89767 6.56 8.82789 6.8 8.68834 7.03C8.55876 7.26 8.36937 7.5 8.13014 7.74L7.37258 8.53C7.26294 8.64 7.2131 8.77 7.2131 8.93C7.2131 9.01 7.22307 9.08 7.243 9.16C7.27291 9.24 7.30281 9.3 7.32275 9.36C7.50217 9.69 7.81117 10.12 8.24976 10.64C8.69831 11.16 9.17676 11.69 9.69509 12.22C10.2334 12.75 10.7517 13.24 11.28 13.69C11.7983 14.13 12.2269 14.43 12.5658 14.61C12.6157 14.63 12.6755 14.66 12.7453 14.69C12.825 14.72 12.9047 14.73 12.9944 14.73C13.1639 14.73 13.2935 14.67 13.4031 14.56L14.1607 13.81C14.4099 13.56 14.6491 13.37 14.8784 13.25C15.1076 13.11 15.3369 13.04 15.5861 13.04C15.7755 13.04 15.9748 13.08 16.1941 13.17C16.4134 13.26 16.6427 13.39 16.8919 13.56L20.1912 15.91C20.4504 16.09 20.6298 16.3 20.7395 16.55C20.8391 16.8 20.899 17.05 20.899 17.33Z" stroke="black" stroke-opacity="0.88" stroke-width="1.5" stroke-miterlimit="10"/>
<path d="M14.4502 5H19.4341" stroke="black" stroke-opacity="0.88" stroke-width="1.5" stroke-linecap="round" stroke-linejoin="round"/>
<path d="M16.9414 7.5V2.5" stroke="black" stroke-opacity="0.88" stroke-width="1.5" stroke-linecap="round" stroke-linejoin="round"/>
</svg>
