<svg width="8" height="8" viewBox="0 0 8 8" fill="none" xmlns="http://www.w3.org/2000/svg">
<path d="M3.99967 6.16658C5.19629 6.16658 6.16634 5.19654 6.16634 3.99992C6.16634 2.8033 5.19629 1.83325 3.99967 1.83325C2.80306 1.83325 1.83301 2.8033 1.83301 3.99992C1.83301 5.19654 2.80306 6.16658 3.99967 6.16658Z" stroke="black" stroke-opacity="0.88" stroke-width="0.8" stroke-linecap="round" stroke-linejoin="round"/>
<path d="M6.38033 6.38008L6.33699 6.33675M6.33699 1.66341L6.38033 1.62008L6.33699 1.66341ZM1.62033 6.38008L1.66366 6.33675L1.62033 6.38008ZM4.00033 0.693415V0.666748V0.693415ZM4.00033 7.33341V7.30675V7.33341ZM0.693659 4.00008H0.666992H0.693659ZM7.33366 4.00008H7.30699H7.33366ZM1.66366 1.66341L1.62033 1.62008L1.66366 1.66341Z" stroke="black" stroke-opacity="0.88" stroke-width="0.8" stroke-linecap="round" stroke-linejoin="round"/>
</svg>
