<?xml version="1.0" encoding="UTF-8"?>
<svg id="Layer_1" data-name="Layer 1" xmlns="http://www.w3.org/2000/svg" viewBox="0 0 907.5 655">
  <defs>
    <style>
      .cls-1 {
        fill: #156350;
      }
    </style>
  </defs>
  <g>
    <g>
      <path class="cls-1" d="M80.05,550.23l-8.78-26.62H33.37l-8.78,26.62H5.61l36.54-102.99h20.77l36.54,102.99h-19.41Zm-27.98-84.79l-14.42,43.97h29.26l-14.35-43.97h-.5Z"/>
      <path class="cls-1" d="M134.65,473.29c5.38,0,10.13,1.28,14.27,3.85,4.14,2.57,7.3,6.07,9.49,10.49h.36v-13.06h17.41v100.56h-17.77v-37.68h-.43c-2,4.28-5.1,7.69-9.31,10.21-4.21,2.52-9,3.78-14.38,3.78-9.52,0-17.08-3.52-22.7-10.56-5.62-7.04-8.42-16.56-8.42-28.55s2.83-21.49,8.49-28.51c5.66-7.02,13.32-10.53,22.98-10.53Zm5.07,63.59c5.61,0,10.13-2.22,13.56-6.67,3.43-4.45,5.14-10.38,5.14-17.81s-1.71-13.36-5.14-17.81c-3.43-4.45-7.95-6.67-13.56-6.67s-10.14,2.19-13.42,6.57c-3.28,4.38-4.92,10.35-4.92,17.91s1.64,13.54,4.92,17.91c3.28,4.38,7.75,6.57,13.42,6.57Z"/>
      <path class="cls-1" d="M257.77,474.58v75.65h-17.13v-13.13h-.36c-4.19,9.66-11.9,14.49-23.13,14.49-8.23,0-14.76-2.51-19.59-7.53-4.83-5.02-7.25-11.88-7.25-20.59v-48.89h17.77v45.32c0,5.42,1.3,9.56,3.89,12.42,2.59,2.85,6.39,4.28,11.38,4.28s9.14-1.66,12.13-5c3-3.33,4.5-7.76,4.5-13.28v-43.75h17.77Z"/>
      <path class="cls-1" d="M294.52,551.44c-7.38,0-13.43-2.12-18.16-6.35-4.73-4.23-7.1-9.73-7.1-16.49s2.49-12.01,7.46-15.92c4.97-3.9,12.07-6.14,21.31-6.71l19.98-1.14v-5.42c0-3.95-1.25-7.02-3.75-9.21-2.5-2.19-5.96-3.28-10.38-3.28-4.14,0-7.52,.93-10.13,2.78-2.62,1.86-4.21,4.38-4.78,7.57h-16.49c.38-7.18,3.46-13.03,9.24-17.52,5.78-4.5,13.41-6.74,22.88-6.74s16.88,2.28,22.52,6.85c5.64,4.57,8.46,10.66,8.46,18.27v52.1h-17.13v-12.06h-.36c-2.14,4.04-5.38,7.27-9.71,9.67-4.33,2.4-8.95,3.6-13.85,3.6Zm5.35-13.42c5.09,0,9.39-1.51,12.88-4.53,3.5-3.02,5.25-6.79,5.25-11.31v-5.78l-17.49,1.07c-4.28,.29-7.6,1.35-9.96,3.18-2.36,1.83-3.53,4.25-3.53,7.24s1.18,5.56,3.53,7.39c2.36,1.83,5.46,2.75,9.31,2.75Z"/>
      <path class="cls-1" d="M383.17,578.78c-9.28,0-17.02-2.13-23.23-6.39-6.21-4.26-9.77-9.74-10.67-16.45h17.63c.95,2.9,2.95,5.25,6,7.03,3.04,1.78,6.66,2.68,10.85,2.68,5.71,0,10.17-1.46,13.38-4.39,3.21-2.93,4.82-6.84,4.82-11.74v-12.78h-.43c-2,4.14-5.1,7.44-9.31,9.88-4.21,2.45-9,3.68-14.38,3.68-9.42,0-16.96-3.44-22.63-10.31-5.66-6.88-8.49-16.17-8.49-27.87s2.83-21.4,8.49-28.37c5.66-6.97,13.32-10.46,22.98-10.46,5.33,0,10.09,1.27,14.27,3.82,4.19,2.55,7.37,6.03,9.56,10.46h.29v-12.99h17.41v74.44c0,9.04-3.33,16.26-9.99,21.66-6.66,5.4-15.51,8.1-26.55,8.1Zm.07-42.61c5.71,0,10.25-2.15,13.63-6.46,3.38-4.31,5.07-10.15,5.07-17.52s-1.7-13.26-5.1-17.66c-3.4-4.4-7.93-6.6-13.6-6.6s-10.08,2.19-13.38,6.57c-3.31,4.38-4.96,10.28-4.96,17.7s1.65,13.34,4.96,17.59c3.31,4.26,7.77,6.39,13.38,6.39Z"/>
      <path class="cls-1" d="M484.3,527.61h16.63c-1.14,7.18-4.78,13-10.92,17.45-6.14,4.45-13.66,6.67-22.55,6.67-11.32,0-20.22-3.49-26.69-10.46-6.47-6.97-9.71-16.5-9.71-28.58s3.22-21.6,9.67-28.83c6.45-7.23,15.12-10.85,26.02-10.85s19.2,3.44,25.48,10.31c6.28,6.88,9.42,16.07,9.42,27.59v5.78h-52.89v1.07c0,6.09,1.72,10.99,5.17,14.7s8.08,5.57,13.88,5.57c4.09,0,7.62-.94,10.6-2.82,2.97-1.88,4.94-4.41,5.89-7.6Zm-17.49-40.82c-4.95,0-9.08,1.7-12.38,5.1-3.31,3.4-5.15,7.77-5.53,13.1h35.33c-.19-5.38-1.88-9.75-5.07-13.13-3.19-3.38-7.3-5.07-12.35-5.07Z"/>
      <path class="cls-1" d="M513.06,550.23v-75.65h17.06v12.99h.36c2.09-4.57,5.15-8.11,9.17-10.63,4.02-2.52,8.89-3.78,14.6-3.78,8.28,0,14.71,2.5,19.31,7.49,4.59,5,6.89,11.9,6.89,20.7v48.89h-17.77v-45.32c0-5.42-1.27-9.56-3.82-12.42-2.55-2.85-6.32-4.28-11.31-4.28s-9.15,1.67-12.17,5c-3.02,3.33-4.53,7.73-4.53,13.2v43.82h-17.77Z"/>
      <path class="cls-1" d="M610.95,461.84c-1.93,1.88-4.27,2.82-7.03,2.82s-5.09-.94-6.99-2.82c-1.9-1.88-2.86-4.15-2.86-6.82s.95-5.01,2.86-6.89c1.9-1.88,4.23-2.82,6.99-2.82s5.1,.94,7.03,2.82c1.93,1.88,2.89,4.18,2.89,6.89s-.96,4.94-2.89,6.82Zm-15.88,88.39v-75.65h17.77v75.65h-17.77Z"/>
      <path class="cls-1" d="M657.31,523.11h-.36l-15.7,27.12h-18.91l24.41-37.76-24.19-37.9h19.98l15.27,26.55h.36l15.06-26.55h19.48l-24.34,37.4,24.05,38.26h-19.41l-15.7-27.12Z"/>
      <path class="cls-1" d="M703.55,447.24h40.04c10.28,0,18.63,3.18,25.05,9.53,6.42,6.35,9.63,14.67,9.63,24.94s-3.29,18.53-9.88,24.91c-6.59,6.38-15.12,9.56-25.59,9.56h-20.84v34.04h-18.41v-102.99Zm18.41,15.06v39.04h16.7c6.61,0,11.75-1.71,15.42-5.14,3.66-3.43,5.5-8.25,5.5-14.49s-1.82-10.97-5.46-14.35c-3.64-3.38-8.77-5.07-15.38-5.07h-16.77Z"/>
      <path class="cls-1" d="M789.91,550.23v-75.65h17.06v13.2h.36c1.28-4.61,3.51-8.18,6.67-10.71,3.16-2.52,6.98-3.78,11.46-3.78,1.57,0,3.43,.24,5.57,.71v16.06c-1.76-.67-4.16-1-7.21-1-5.04,0-8.99,1.52-11.85,4.57-2.86,3.05-4.28,7.23-4.28,12.56v44.04h-17.77Z"/>
      <path class="cls-1" d="M897.47,541.2c-6.61,7.02-15.51,10.53-26.69,10.53s-20.08-3.51-26.69-10.53c-6.61-7.02-9.92-16.62-9.92-28.8s3.33-21.73,9.99-28.8c6.66-7.07,15.53-10.6,26.62-10.6s20.02,3.53,26.66,10.6,9.96,16.67,9.96,28.8-3.31,21.78-9.92,28.8Zm-40.25-10.17c3.33,4.42,7.85,6.64,13.56,6.64s10.23-2.21,13.56-6.64c3.33-4.43,5-10.63,5-18.63s-1.67-14.14-5-18.59c-3.33-4.45-7.85-6.67-13.56-6.67s-10.17,2.23-13.52,6.67c-3.35,4.45-5.03,10.65-5.03,18.59s1.66,14.2,5,18.63Z"/>
    </g>
    <g>
      <path class="cls-1" d="M51.77,590.5h25.55v2.87h-11.1v28.98h-3.41v-28.98h-11.04v-2.87Z"/>
      <path class="cls-1" d="M80.14,611.93c.22,2.7,1.09,4.77,2.63,6.24,1.53,1.46,3.62,2.19,6.25,2.19,2.13,0,3.91-.51,5.33-1.53,1.43-1.02,2.34-2.41,2.73-4.17l3.14,.58c-.61,2.47-1.91,4.39-3.9,5.77-1.98,1.38-4.42,2.07-7.31,2.07-3.83,0-6.83-1.07-9.01-3.21-2.18-2.14-3.27-5.08-3.27-8.82s1.04-6.62,3.11-8.74c2.07-2.13,4.93-3.19,8.58-3.19s6.57,1.06,8.66,3.19c2.09,2.13,3.14,4.94,3.14,8.45v1.17h-20.08Zm.11-2.44h16.57c0-2.21-.79-4.04-2.38-5.5-1.59-1.46-3.59-2.19-6.01-2.19s-4.17,.67-5.58,2c-1.41,1.33-2.27,3.23-2.6,5.7Z"/>
      <path class="cls-1" d="M126.91,607.21l-3.03,.54c-.65-1.92-1.69-3.39-3.11-4.41-1.43-1.02-3.17-1.53-5.22-1.53-2.67,0-4.76,.8-6.28,2.41-1.52,1.61-2.27,3.89-2.27,6.84s.76,5.29,2.27,6.89,3.61,2.41,6.28,2.41c2.2,0,4.05-.56,5.55-1.68,1.5-1.12,2.46-2.69,2.9-4.7l3.14,.54c-.58,2.73-1.92,4.84-4.03,6.33-2.11,1.49-4.63,2.24-7.55,2.24-3.61,0-6.5-1.05-8.66-3.17-2.17-2.11-3.25-5.07-3.25-8.87s1.08-6.7,3.25-8.79c2.17-2.09,5.05-3.14,8.66-3.14,2.63,0,4.96,.7,6.98,2.09,2.02,1.4,3.48,3.39,4.38,5.99Z"/>
      <path class="cls-1" d="M134.65,599.95l-1.19,5.99,1.19,.34v16.08h-3.3v-33.47h3.3v11.06Zm14.4,8.43c0-1.95-.64-3.52-1.92-4.73-1.28-1.2-2.97-1.8-5.06-1.8s-3.94,.62-5.33,1.85c-1.39,1.23-2.08,2.83-2.08,4.77h-.6c0-2.76,.85-4.99,2.54-6.7s3.95-2.56,6.77-2.56c2.56,0,4.72,.83,6.47,2.48,1.75,1.66,2.63,3.7,2.63,6.14v14.52h-3.41v-13.98Z"/>
      <path class="cls-1" d="M155.87,607.6h17.43v2.73h-17.43v-2.73Z"/>
      <path class="cls-1" d="M194.33,602.24c1.79,2.08,2.68,5.03,2.68,8.87s-.91,6.79-2.73,8.87c-1.82,2.08-4.38,3.12-7.66,3.12s-5.82-1.05-7.82-3.17c-2-2.11-3-5-3-8.67s1.06-6.77,3.19-8.91,4.76-3.21,7.9-3.21,5.66,1.04,7.44,3.12Zm-.57,15.71c1.48-1.61,2.22-3.9,2.22-6.87s-.74-5.26-2.22-6.87c-1.48-1.61-3.54-2.41-6.17-2.41s-4.75,.8-6.23,2.41c-1.48,1.61-2.22,3.91-2.22,6.89s.74,5.28,2.22,6.87c1.48,1.59,3.55,2.39,6.23,2.39s4.69-.8,6.17-2.41Zm5.63-29.06v33.47h-3.41l1.14-5.99-1.14-.34v-9.74l1.25-.34-1.25-5.99v-11.06h3.41Z"/>
      <path class="cls-1" d="M204.59,599.95h3.3l-1.25,5.99,1.25,.34v16.08h-3.3v-22.41Zm11.75,2.83c-2.31,0-4.3,.56-5.95,1.68-1.66,1.12-2.49,2.57-2.49,4.36l-.6-.34c0-2.6,.83-4.68,2.49-6.24,1.66-1.56,3.9-2.34,6.71-2.34h1.79v2.87h-1.95Z"/>
      <path class="cls-1" d="M221.7,595.54c-.43-.41-.65-.88-.65-1.41s.21-.99,.62-1.36c.42-.37,.92-.56,1.52-.56s1.11,.19,1.54,.56c.43,.37,.65,.83,.65,1.36s-.22,1.01-.65,1.41c-.43,.41-.94,.61-1.52,.61s-1.08-.2-1.52-.61Zm-.05,4.41h3.3v22.41h-3.3v-22.41Z"/>
      <path class="cls-1" d="M240.54,617.29l6.82-17.34h3.63l-8.88,22.41h-5.09l-8.88-22.41h3.57l6.88,17.34,.65,2.73h.65l.65-2.73Z"/>
      <path class="cls-1" d="M256.34,611.93c.22,2.7,1.09,4.77,2.63,6.24,1.53,1.46,3.62,2.19,6.25,2.19,2.13,0,3.91-.51,5.33-1.53,1.43-1.02,2.34-2.41,2.73-4.17l3.14,.58c-.61,2.47-1.91,4.39-3.9,5.77-1.98,1.38-4.42,2.07-7.31,2.07-3.83,0-6.83-1.07-9.01-3.21-2.18-2.14-3.27-5.08-3.27-8.82s1.04-6.62,3.11-8.74c2.07-2.13,4.93-3.19,8.58-3.19s6.57,1.06,8.66,3.19c2.09,2.13,3.14,4.94,3.14,8.45v1.17h-20.08Zm.11-2.44h16.57c0-2.21-.79-4.04-2.38-5.5-1.59-1.46-3.59-2.19-6.01-2.19s-4.17,.67-5.58,2c-1.41,1.33-2.27,3.23-2.6,5.7Z"/>
      <path class="cls-1" d="M280.7,599.95h3.3l-1.25,5.99,1.25,.34v16.08h-3.3v-22.41Zm17.7,8.43c0-1.95-.64-3.52-1.92-4.73-1.28-1.2-2.97-1.8-5.06-1.8s-3.94,.62-5.33,1.85c-1.39,1.23-2.08,2.83-2.08,4.77h-.65c0-2.76,.86-4.99,2.57-6.7,1.71-1.7,3.98-2.56,6.79-2.56,2.56,0,4.72,.83,6.47,2.48,1.75,1.66,2.63,3.7,2.63,6.14v14.52h-3.41v-13.98Z"/>
      <path class="cls-1" d="M325.42,622.36h-3.36v-19.68h-5.31v-2.73h5.31v-3.07c0-2.92,.63-4.98,1.9-6.19,1.26-1.2,3.34-1.8,6.22-1.8h3.14v2.73h-3.57c-1.52,0-2.62,.41-3.3,1.24-.69,.83-1.03,2.07-1.03,3.73v3.36h8.5v2.73h-8.5v19.68Z"/>
      <path class="cls-1" d="M357.46,622.36h-3.36l1.25-5.94-1.25-.39v-8.48c0-1.66-.64-3-1.92-4.02-1.28-1.02-2.97-1.53-5.06-1.53s-3.8,.53-5.12,1.58c-1.32,1.06-2.08,2.44-2.3,4.17l-3.25-.58c.4-2.34,1.55-4.25,3.46-5.72,1.91-1.48,4.35-2.22,7.31-2.22s5.49,.76,7.39,2.27c1.9,1.51,2.84,3.35,2.84,5.53v15.34Zm-17.65-5.5c0,1.14,.55,2,1.65,2.58,1.1,.58,2.57,.88,4.41,.88,2.42,0,4.39-.61,5.93-1.83,1.53-1.22,2.3-2.77,2.3-4.65h.76c0,2.79-.9,5.03-2.71,6.72-1.81,1.69-4.19,2.53-7.15,2.53-2.46,0-4.49-.58-6.12-1.75-1.62-1.17-2.44-2.66-2.44-4.48,0-1.56,.54-2.79,1.62-3.7,1.08-.91,2.72-1.64,4.93-2.19l11.1-2.39v2.58l-9.96,2c-1.59,.32-2.71,.8-3.36,1.41-.65,.62-.97,1.38-.97,2.29Z"/>
      <path class="cls-1" d="M362.61,599.95h3.3l-1.25,5.99,1.25,.34v16.08h-3.3v-22.41Zm11.75,2.83c-2.31,0-4.3,.56-5.95,1.68-1.66,1.12-2.49,2.57-2.49,4.36l-.6-.34c0-2.6,.83-4.68,2.49-6.24,1.66-1.56,3.9-2.34,6.71-2.34h1.79v2.87h-1.95Z"/>
      <path class="cls-1" d="M379.66,599.95h3.3l-1.25,5.99,1.25,.34v16.08h-3.3v-22.41Zm16.24,8.48c0-2.01-.53-3.61-1.6-4.8-1.07-1.18-2.55-1.78-4.47-1.78-2.13,0-3.81,.62-5.03,1.85-1.23,1.23-1.84,2.84-1.84,4.82h-.65c0-2.83,.76-5.08,2.27-6.77,1.52-1.69,3.57-2.53,6.17-2.53,1.84,0,3.49,.68,4.95,2.05,1.46,1.36,2.19,2.96,2.19,4.77v.24l1.35,.29v15.78h-3.36v-13.93Zm16.24,0c0-2.01-.56-3.61-1.68-4.8-1.12-1.18-2.74-1.78-4.87-1.78-1.99,0-3.54,.62-4.66,1.85-1.12,1.23-1.68,2.84-1.68,4.82h-.7c0-2.83,.74-5.08,2.22-6.77,1.48-1.69,3.52-2.53,6.12-2.53s4.68,.82,6.25,2.46c1.57,1.64,2.36,3.71,2.36,6.21v14.47h-3.36v-13.93Z"/>
      <path class="cls-1" d="M420.69,595.54c-.43-.41-.65-.88-.65-1.41s.21-.99,.62-1.36c.42-.37,.92-.56,1.52-.56s1.11,.19,1.54,.56c.43,.37,.65,.83,.65,1.36s-.22,1.01-.65,1.41c-.43,.41-.94,.61-1.52,.61s-1.08-.2-1.52-.61Zm-.05,4.41h3.3v22.41h-3.3v-22.41Z"/>
      <path class="cls-1" d="M428.92,599.95h3.3l-1.25,5.99,1.25,.34v16.08h-3.3v-22.41Zm17.7,8.43c0-1.95-.64-3.52-1.92-4.73-1.28-1.2-2.97-1.8-5.06-1.8s-3.94,.62-5.33,1.85c-1.39,1.23-2.08,2.83-2.08,4.77h-.65c0-2.76,.86-4.99,2.57-6.7,1.71-1.7,3.98-2.56,6.79-2.56,2.56,0,4.72,.83,6.47,2.48,1.75,1.66,2.63,3.7,2.63,6.14v14.52h-3.41v-13.98Z"/>
      <path class="cls-1" d="M453.6,626.64c0-1.72,.78-3.09,2.33-4.09,1.55-1.01,3.64-1.51,6.28-1.51v-.58c-3.75-.71-5.63-1.77-5.63-3.17,0-.78,.64-1.35,1.92-1.7,1.28-.36,3.35-.54,6.2-.54l1.24,.63c-2.09,0-3.57,.07-4.44,.22s-1.3,.38-1.3,.71c0,.72,1.77,1.51,5.31,2.39,3.82,.94,6.5,1.96,8.04,3.04,1.53,1.09,2.3,2.48,2.3,4.16,0,2.11-.99,3.78-2.98,4.99-1.99,1.22-4.69,1.83-8.12,1.83s-6.14-.58-8.15-1.73c-2-1.15-3.01-2.7-3.01-4.65Zm.87-19.39c0-2.5,.88-4.48,2.65-5.94,1.77-1.46,4.19-2.19,7.25-2.19s5.73,.78,7.66,2.34c1.93,1.56,2.9,3.62,2.9,6.19,0,2.37-.83,4.3-2.49,5.8-1.66,1.49-3.83,2.24-6.5,2.24-.25-.03-1.55-.13-3.9-.29v-.83c-2.38-.13-4.24-.84-5.58-2.14-1.34-1.3-2-3.02-2-5.16Zm2.44,18.8c0,1.33,.7,2.38,2.11,3.14,1.41,.76,3.34,1.15,5.79,1.15s4.3-.37,5.66-1.12c1.35-.75,2.03-1.8,2.03-3.17,0-.97-.45-1.75-1.35-2.31-.9-.57-2.85-1.34-5.85-2.31-2.56,.03-4.6,.45-6.12,1.27-1.52,.81-2.27,1.93-2.27,3.36Zm.92-18.71c0,1.82,.6,3.24,1.81,4.26,1.21,1.02,2.9,1.53,5.06,1.53s3.86-.51,5.09-1.53c1.23-1.02,1.84-2.44,1.84-4.26s-.61-3.17-1.81-4.16c-1.21-.99-2.91-1.49-5.12-1.49s-3.9,.5-5.09,1.49c-1.19,.99-1.79,2.38-1.79,4.16Zm14.51-9.45c-1.3,0-1.95,.46-1.95,1.36,0,.46,.41,1.1,1.25,1.95l-2.54-.73,.59-1.02c-.94-.52-1.41-1.12-1.41-1.8s.35-1.22,1.06-1.61c.7-.39,1.69-.58,2.95-.58h4.49v2.44h-4.44Z"/>
      <path class="cls-1" d="M497.83,622.36h-3.36v-19.68h-5.31v-2.73h5.31v-3.07c0-2.92,.63-4.98,1.9-6.19,1.26-1.2,3.34-1.8,6.22-1.8h3.14v2.73h-3.57c-1.52,0-2.62,.41-3.3,1.24s-1.03,2.07-1.03,3.73v3.36h8.5v2.73h-8.5v19.68Z"/>
      <path class="cls-1" d="M507.68,611.05c0-3.8,1.06-6.74,3.17-8.82,2.11-2.08,4.95-3.12,8.53-3.12s6.21,1.06,8.45,3.19c2.24,2.13,3.36,5.04,3.36,8.74s-1.07,6.76-3.19,8.87c-2.13,2.11-4.99,3.17-8.58,3.17s-6.44-1.05-8.55-3.17c-2.11-2.11-3.17-5.07-3.17-8.87Zm3.36,0c0,2.99,.73,5.29,2.19,6.89,1.46,1.61,3.52,2.41,6.17,2.41s4.72-.8,6.2-2.41c1.48-1.61,2.22-3.9,2.22-6.89s-.75-5.24-2.25-6.84c-1.5-1.61-3.57-2.41-6.2-2.41s-4.68,.8-6.14,2.41c-1.46,1.61-2.19,3.89-2.19,6.84Z"/>
      <path class="cls-1" d="M535.45,599.95h3.3l-1.25,5.99,1.25,.34v16.08h-3.3v-22.41Zm11.75,2.83c-2.31,0-4.3,.56-5.95,1.68-1.66,1.12-2.49,2.57-2.49,4.36l-.6-.34c0-2.6,.83-4.68,2.49-6.24,1.66-1.56,3.9-2.34,6.71-2.34h1.79v2.87h-1.95Z"/>
      <path class="cls-1" d="M584.23,622.36h-3.36l1.25-5.94-1.25-.39v-8.48c0-1.66-.64-3-1.92-4.02-1.28-1.02-2.97-1.53-5.06-1.53s-3.8,.53-5.12,1.58c-1.32,1.06-2.08,2.44-2.3,4.17l-3.25-.58c.4-2.34,1.55-4.25,3.46-5.72,1.91-1.48,4.35-2.22,7.31-2.22s5.49,.76,7.39,2.27c1.9,1.51,2.84,3.35,2.84,5.53v15.34Zm-17.65-5.5c0,1.14,.55,2,1.65,2.58,1.1,.58,2.57,.88,4.41,.88,2.42,0,4.39-.61,5.93-1.83,1.53-1.22,2.3-2.77,2.3-4.65h.76c0,2.79-.9,5.03-2.71,6.72-1.81,1.69-4.19,2.53-7.15,2.53-2.46,0-4.49-.58-6.12-1.75-1.62-1.17-2.44-2.66-2.44-4.48,0-1.56,.54-2.79,1.62-3.7,1.08-.91,2.72-1.64,4.93-2.19l11.1-2.39v2.58l-9.96,2c-1.59,.32-2.71,.8-3.36,1.41-.65,.62-.97,1.38-.97,2.29Z"/>
      <path class="cls-1" d="M600.95,588.89h3.3v11.06l-1.25,5.99,1.25,.34v9.74l-1.25,.34,1.25,5.99h-3.3v-33.47Zm2.22,22.21c0-3.83,.9-6.79,2.71-8.87,1.8-2.08,4.31-3.12,7.52-3.12s5.81,1.07,7.9,3.21c2.09,2.14,3.14,5.11,3.14,8.91s-.99,6.52-2.98,8.65c-1.99,2.13-4.58,3.19-7.8,3.19s-5.9-1.04-7.74-3.12c-1.84-2.08-2.76-5.03-2.76-8.87Zm3.33-6.87c-1.5,1.62-2.25,3.91-2.25,6.87s.75,5.24,2.25,6.84c1.5,1.61,3.58,2.41,6.25,2.41s4.68-.8,6.14-2.41c1.46-1.61,2.19-3.89,2.19-6.84s-.73-5.24-2.19-6.87c-1.46-1.62-3.51-2.44-6.14-2.44s-4.75,.81-6.25,2.44Z"/>
      <path class="cls-1" d="M631.32,611.93c.22,2.7,1.09,4.77,2.63,6.24,1.53,1.46,3.62,2.19,6.25,2.19,2.13,0,3.91-.51,5.33-1.53,1.43-1.02,2.34-2.41,2.73-4.17l3.14,.58c-.61,2.47-1.91,4.39-3.9,5.77-1.98,1.38-4.42,2.07-7.31,2.07-3.83,0-6.83-1.07-9.01-3.21-2.18-2.14-3.27-5.08-3.27-8.82s1.04-6.62,3.11-8.74c2.07-2.13,4.93-3.19,8.58-3.19s6.57,1.06,8.66,3.19c2.09,2.13,3.14,4.94,3.14,8.45v1.17h-20.08Zm.11-2.44h16.57c0-2.21-.79-4.04-2.38-5.5-1.59-1.46-3.59-2.19-6.01-2.19s-4.17,.67-5.58,2c-1.41,1.33-2.27,3.23-2.6,5.7Z"/>
      <path class="cls-1" d="M661.47,602.68v12.76c0,1.85,.22,3,.68,3.46,.45,.46,1.52,.68,3.22,.68h4.6v2.78h-5.41c-2.13,0-3.73-.46-4.82-1.39-1.08-.93-1.62-2.57-1.62-4.94v-13.35h-5.31v-2.73h5.31v-6.58l3.36-.54v7.11h8.5v2.73h-8.5Z"/>
      <path class="cls-1" d="M680.26,602.68v12.76c0,1.85,.22,3,.68,3.46,.45,.46,1.52,.68,3.22,.68h4.6v2.78h-5.41c-2.13,0-3.73-.46-4.82-1.39-1.08-.93-1.62-2.57-1.62-4.94v-13.35h-5.31v-2.73h5.31v-6.58l3.36-.54v7.11h8.5v2.73h-8.5Z"/>
      <path class="cls-1" d="M693.52,611.93c.22,2.7,1.09,4.77,2.63,6.24,1.53,1.46,3.62,2.19,6.25,2.19,2.13,0,3.91-.51,5.33-1.53,1.43-1.02,2.34-2.41,2.73-4.17l3.14,.58c-.61,2.47-1.91,4.39-3.9,5.77-1.98,1.38-4.42,2.07-7.31,2.07-3.83,0-6.83-1.07-9.01-3.21-2.18-2.14-3.27-5.08-3.27-8.82s1.04-6.62,3.11-8.74c2.07-2.13,4.93-3.19,8.58-3.19s6.57,1.06,8.66,3.19c2.09,2.13,3.14,4.94,3.14,8.45v1.17h-20.08Zm.11-2.44h16.57c0-2.21-.79-4.04-2.38-5.5-1.59-1.46-3.59-2.19-6.01-2.19s-4.17,.67-5.58,2c-1.41,1.33-2.27,3.23-2.6,5.7Z"/>
      <path class="cls-1" d="M717.88,599.95h3.3l-1.25,5.99,1.25,.34v16.08h-3.3v-22.41Zm11.75,2.83c-2.31,0-4.3,.56-5.95,1.68-1.66,1.12-2.49,2.57-2.49,4.36l-.6-.34c0-2.6,.83-4.68,2.49-6.24,1.66-1.56,3.9-2.34,6.71-2.34h1.79v2.87h-1.95Z"/>
      <path class="cls-1" d="M763.25,605.26l-5.31,17.1h-5.14l-8.07-22.41h3.47l6.28,17.2,.54,2.73h.7l.6-2.73,5.25-17.2h4.87l5.36,17.2,.54,2.73h.7l.54-2.73,6.28-17.2h3.41l-8.01,22.41h-5.14l-5.31-17.1-.43-2.97h-.7l-.43,2.97Z"/>
      <path class="cls-1" d="M785.22,611.05c0-3.8,1.06-6.74,3.17-8.82,2.11-2.08,4.95-3.12,8.53-3.12s6.21,1.06,8.45,3.19c2.24,2.13,3.36,5.04,3.36,8.74s-1.07,6.76-3.19,8.87c-2.13,2.11-4.99,3.17-8.58,3.17s-6.44-1.05-8.55-3.17c-2.11-2.11-3.17-5.07-3.17-8.87Zm3.36,0c0,2.99,.73,5.29,2.19,6.89,1.46,1.61,3.52,2.41,6.17,2.41s4.72-.8,6.2-2.41c1.48-1.61,2.22-3.9,2.22-6.89s-.75-5.24-2.25-6.84c-1.5-1.61-3.57-2.41-6.2-2.41s-4.68,.8-6.14,2.41c-1.46,1.61-2.19,3.89-2.19,6.84Z"/>
      <path class="cls-1" d="M813,599.95h3.3l-1.25,5.99,1.25,.34v16.08h-3.3v-22.41Zm11.75,2.83c-2.31,0-4.3,.56-5.95,1.68-1.66,1.12-2.49,2.57-2.49,4.36l-.6-.34c0-2.6,.83-4.68,2.49-6.24,1.66-1.56,3.9-2.34,6.71-2.34h1.79v2.87h-1.95Z"/>
      <path class="cls-1" d="M830.05,588.89h3.3v33.47h-3.3v-33.47Z"/>
      <path class="cls-1" d="M856.17,602.24c1.79,2.08,2.68,5.03,2.68,8.87s-.91,6.79-2.73,8.87c-1.82,2.08-4.38,3.12-7.66,3.12s-5.82-1.05-7.82-3.17c-2-2.11-3-5-3-8.67s1.06-6.77,3.19-8.91,4.76-3.21,7.9-3.21,5.66,1.04,7.44,3.12Zm-.57,15.71c1.48-1.61,2.22-3.9,2.22-6.87s-.74-5.26-2.22-6.87c-1.48-1.61-3.54-2.41-6.17-2.41s-4.75,.8-6.23,2.41c-1.48,1.61-2.22,3.91-2.22,6.89s.74,5.28,2.22,6.87c1.48,1.59,3.55,2.39,6.23,2.39s4.69-.8,6.17-2.41Zm5.63-29.06v33.47h-3.41l1.14-5.99-1.14-.34v-9.74l1.25-.34-1.25-5.99v-11.06h3.41Z"/>
    </g>
  </g>
  <g>
    <path class="cls-1" d="M412.19,247.29l55.17-171.46,40.03,149.89c-111.05,71.01-186.23,34.2-186.23,34.2-69.58-32.89,84.84-150.37,84.84-150.37l-.73-13.17s-156.32,92.66-138.02,173.08c0,0,7.33,53.42,119.33,34.27,112-19.15,166.81-84.68,166.81-84.68L465.21,26.98l-102.59,225.31,49.57-5Z"/>
    <polygon class="cls-1" points="541.11 319.01 582.57 281.84 616.17 359.29 550.52 359.29 541.11 319.01"/>
    <path class="cls-1" d="M322.73,330.81l-18.25,45.63s157.52,9.27,274.17-105.94c116.65-115.21,79.47-240.55-73.04-208.86l12.15,13.19s155.01-31.18,91.15,104.65c-16.89,35.93-47.85,63.41-77.33,84.24-81.98,57.92-186.75,65.33-208.85,67.08Z"/>
    <polygon class="cls-1" points="507.47 226.26 507.31 225.18 553.3 218.51 553.46 219.59 507.47 226.26"/>
  </g>
</svg>